<svg xmlns="http://www.w3.org/2000/svg" viewBox="0 0 800 520">
  <defs>
    <linearGradient id="sky3" x1="0" y1="0" x2="0" y2="1">
      <stop offset="0%" stop-color="#ffe7bc"/>
      <stop offset="100%" stop-color="#fff7e8"/>
    </linearGradient>
  </defs>
  <rect width="800" height="520" fill="url(#sky3)"/>
  <rect y="360" width="800" height="160" fill="#4f6b84"/>
  <rect x="80" y="220" width="120" height="140" fill="#c97c4f"/>
  <rect x="230" y="180" width="110" height="180" fill="#a96843"/>
  <rect x="360" y="140" width="120" height="220" fill="#d28a5f"/>
  <rect x="510" y="200" width="120" height="160" fill="#b8744a"/>
  <rect x="660" y="160" width="90" height="200" fill="#d08a64"/>
  <g fill="#ffe7b8">
    <rect x="95" y="240" width="18" height="18"/>
    <rect x="125" y="240" width="18" height="18"/>
    <rect x="155" y="240" width="18" height="18"/>
    <rect x="245" y="205" width="16" height="16"/>
    <rect x="272" y="205" width="16" height="16"/>
    <rect x="299" y="205" width="16" height="16"/>
    <rect x="380" y="170" width="18" height="18"/>
    <rect x="410" y="170" width="18" height="18"/>
    <rect x="440" y="170" width="18" height="18"/>
    <rect x="530" y="225" width="16" height="16"/>
    <rect x="557" y="225" width="16" height="16"/>
    <rect x="584" y="225" width="16" height="16"/>
    <rect x="675" y="185" width="14" height="14"/>
    <rect x="700" y="185" width="14" height="14"/>
    <rect x="725" y="185" width="14" height="14"/>
  </g>
</svg>
